<mxfile host="app.diagrams.net" agent="Mozilla/5.0 (Macintosh; Intel Mac OS X 10_15_7) AppleWebKit/537.36 (KHTML, like Gecko) Chrome/134.0.0.0 Safari/537.36" version="26.1.3">
  <diagram name="第 1 页" id="foYkLZINWGd8DqjeHYjd">
    <mxGraphModel dx="1853" dy="1819" grid="1" gridSize="10" guides="1" tooltips="1" connect="1" arrows="1" fold="1" page="1" pageScale="1" pageWidth="827" pageHeight="1169" math="0" shadow="0">
      <root>
        <mxCell id="0" />
        <mxCell id="1" parent="0" />
        <mxCell id="wKhzmLMpQ3T_GMPxd84L-4" value="&lt;font style=&quot;font-size: 24px;&quot;&gt;虚拟内存&lt;/font&gt;" style="rounded=1;whiteSpace=wrap;html=1;fillColor=#dae8fc;strokeColor=#6c8ebf;movable=0;resizable=0;rotatable=0;deletable=0;editable=0;locked=1;connectable=0;" vertex="1" parent="1">
          <mxGeometry x="130" y="525" width="500" height="60" as="geometry" />
        </mxCell>
        <mxCell id="wKhzmLMpQ3T_GMPxd84L-5" value="" style="rounded=1;whiteSpace=wrap;html=1;fillColor=#d5e8d4;strokeColor=#82b366;movable=0;resizable=0;rotatable=0;deletable=0;editable=0;locked=1;connectable=0;" vertex="1" parent="1">
          <mxGeometry x="160" y="420" width="410" height="60" as="geometry" />
        </mxCell>
        <mxCell id="wKhzmLMpQ3T_GMPxd84L-6" value="" style="sketch=0;pointerEvents=1;shadow=0;dashed=0;html=1;strokeColor=none;labelPosition=center;verticalLabelPosition=bottom;verticalAlign=top;outlineConnect=0;align=center;shape=mxgraph.office.security.lock_protected;fillColor=#3399FF;movable=0;resizable=0;rotatable=0;deletable=0;editable=0;locked=1;connectable=0;" vertex="1" parent="1">
          <mxGeometry x="180" y="432" width="20" height="36" as="geometry" />
        </mxCell>
        <mxCell id="wKhzmLMpQ3T_GMPxd84L-7" value="" style="shape=link;html=1;rounded=0;movable=0;resizable=0;rotatable=0;deletable=0;editable=0;locked=1;connectable=0;" edge="1" parent="1">
          <mxGeometry width="100" relative="1" as="geometry">
            <mxPoint x="50" y="500" as="sourcePoint" />
            <mxPoint x="700" y="500" as="targetPoint" />
          </mxGeometry>
        </mxCell>
        <mxCell id="wKhzmLMpQ3T_GMPxd84L-12" value="" style="endArrow=classic;html=1;rounded=0;exitX=0.38;exitY=0.5;exitDx=0;exitDy=0;exitPerimeter=0;fillColor=#f8cecc;strokeColor=#b85450;movable=0;resizable=0;rotatable=0;deletable=0;editable=0;locked=1;connectable=0;" edge="1" parent="1" source="wKhzmLMpQ3T_GMPxd84L-4">
          <mxGeometry width="50" height="50" relative="1" as="geometry">
            <mxPoint x="270" y="510" as="sourcePoint" />
            <mxPoint x="320" y="460" as="targetPoint" />
          </mxGeometry>
        </mxCell>
        <mxCell id="wKhzmLMpQ3T_GMPxd84L-13" value="" style="endArrow=classic;html=1;rounded=0;exitX=0.38;exitY=0.5;exitDx=0;exitDy=0;exitPerimeter=0;entryX=0.34;entryY=0.583;entryDx=0;entryDy=0;entryPerimeter=0;fillColor=#f8cecc;strokeColor=#b85450;movable=0;resizable=0;rotatable=0;deletable=0;editable=0;locked=1;connectable=0;" edge="1" parent="1" target="wKhzmLMpQ3T_GMPxd84L-4">
          <mxGeometry width="50" height="50" relative="1" as="geometry">
            <mxPoint x="300" y="460" as="sourcePoint" />
            <mxPoint x="300" y="545" as="targetPoint" />
          </mxGeometry>
        </mxCell>
        <mxCell id="wKhzmLMpQ3T_GMPxd84L-14" value="" style="rounded=1;whiteSpace=wrap;html=1;fillColor=#e1d5e7;strokeColor=#9673a6;movable=0;resizable=0;rotatable=0;deletable=0;editable=0;locked=1;connectable=0;" vertex="1" parent="1">
          <mxGeometry x="180" y="160" width="300" height="235" as="geometry" />
        </mxCell>
        <mxCell id="wKhzmLMpQ3T_GMPxd84L-20" value="&lt;div data-lake_diagram_content_editor_data=&quot;true&quot;&gt;&lt;font style=&quot;font-size: 24px;&quot;&gt;mcentral&lt;/font&gt;&lt;/div&gt;" style="text;html=1;align=center;verticalAlign=middle;whiteSpace=wrap;rounded=0;movable=0;resizable=0;rotatable=0;deletable=0;editable=0;locked=1;connectable=0;" vertex="1" parent="1">
          <mxGeometry x="-20" y="262.5" width="210" height="30" as="geometry" />
        </mxCell>
        <mxCell id="wKhzmLMpQ3T_GMPxd84L-21" value="&lt;span style=&quot;font-size: 24px;&quot;&gt;mheap&lt;/span&gt;" style="text;html=1;align=center;verticalAlign=middle;whiteSpace=wrap;rounded=0;movable=0;resizable=0;rotatable=0;deletable=0;editable=0;locked=1;connectable=0;" vertex="1" parent="1">
          <mxGeometry x="50" y="435" width="60" height="30" as="geometry" />
        </mxCell>
        <mxCell id="wKhzmLMpQ3T_GMPxd84L-44" value="&lt;div data-lake_diagram_content_editor_data=&quot;true&quot;&gt;&lt;font style=&quot;font-size: 24px;&quot;&gt;mcache&lt;/font&gt;&lt;/div&gt;" style="text;html=1;align=center;verticalAlign=middle;whiteSpace=wrap;rounded=0;movable=0;resizable=0;rotatable=0;deletable=0;editable=0;locked=1;connectable=0;" vertex="1" parent="1">
          <mxGeometry x="-25" y="47.5" width="210" height="30" as="geometry" />
        </mxCell>
        <mxCell id="wKhzmLMpQ3T_GMPxd84L-46" value="" style="group;movable=0;resizable=0;rotatable=0;deletable=0;editable=0;locked=1;connectable=0;" vertex="1" connectable="0" parent="1">
          <mxGeometry x="200" y="190" width="260" height="170" as="geometry" />
        </mxCell>
        <mxCell id="wKhzmLMpQ3T_GMPxd84L-40" value="" style="sketch=0;pointerEvents=1;shadow=0;dashed=0;html=1;strokeColor=none;labelPosition=center;verticalLabelPosition=bottom;verticalAlign=top;outlineConnect=0;align=center;shape=mxgraph.office.security.lock_protected;fillColor=#3399FF;movable=0;resizable=0;rotatable=0;deletable=0;editable=0;locked=1;connectable=0;" vertex="1" parent="wKhzmLMpQ3T_GMPxd84L-46">
          <mxGeometry x="25" width="20" height="36" as="geometry" />
        </mxCell>
        <mxCell id="wKhzmLMpQ3T_GMPxd84L-41" value="" style="sketch=0;pointerEvents=1;shadow=0;dashed=0;html=1;strokeColor=none;labelPosition=center;verticalLabelPosition=bottom;verticalAlign=top;outlineConnect=0;align=center;shape=mxgraph.office.security.lock_protected;fillColor=#3399FF;movable=0;resizable=0;rotatable=0;deletable=0;editable=0;locked=1;connectable=0;" vertex="1" parent="wKhzmLMpQ3T_GMPxd84L-46">
          <mxGeometry x="125" width="20" height="36" as="geometry" />
        </mxCell>
        <mxCell id="wKhzmLMpQ3T_GMPxd84L-42" value="" style="sketch=0;pointerEvents=1;shadow=0;dashed=0;html=1;strokeColor=none;labelPosition=center;verticalLabelPosition=bottom;verticalAlign=top;outlineConnect=0;align=center;shape=mxgraph.office.security.lock_protected;fillColor=#3399FF;movable=0;resizable=0;rotatable=0;deletable=0;editable=0;locked=1;connectable=0;" vertex="1" parent="wKhzmLMpQ3T_GMPxd84L-46">
          <mxGeometry x="215" width="20" height="36" as="geometry" />
        </mxCell>
        <mxCell id="wKhzmLMpQ3T_GMPxd84L-45" value="" style="group;movable=0;resizable=0;rotatable=0;deletable=0;editable=0;locked=1;connectable=0;" vertex="1" connectable="0" parent="wKhzmLMpQ3T_GMPxd84L-46">
          <mxGeometry y="40" width="260" height="130" as="geometry" />
        </mxCell>
        <mxCell id="wKhzmLMpQ3T_GMPxd84L-23" value="" style="edgeStyle=orthogonalEdgeStyle;rounded=0;orthogonalLoop=1;jettySize=auto;html=1;entryX=0.5;entryY=0;entryDx=0;entryDy=0;movable=0;resizable=0;rotatable=0;deletable=0;editable=0;locked=1;connectable=0;" edge="1" parent="wKhzmLMpQ3T_GMPxd84L-45" source="wKhzmLMpQ3T_GMPxd84L-16" target="wKhzmLMpQ3T_GMPxd84L-17">
          <mxGeometry relative="1" as="geometry">
            <Array as="points" />
          </mxGeometry>
        </mxCell>
        <mxCell id="wKhzmLMpQ3T_GMPxd84L-16" value="span class 0" style="rounded=0;whiteSpace=wrap;html=1;fillColor=#fff2cc;strokeColor=#d6b656;movable=0;resizable=0;rotatable=0;deletable=0;editable=0;locked=1;connectable=0;" vertex="1" parent="wKhzmLMpQ3T_GMPxd84L-45">
          <mxGeometry width="70" height="30" as="geometry" />
        </mxCell>
        <mxCell id="wKhzmLMpQ3T_GMPxd84L-24" value="" style="edgeStyle=orthogonalEdgeStyle;rounded=0;orthogonalLoop=1;jettySize=auto;html=1;movable=0;resizable=0;rotatable=0;deletable=0;editable=0;locked=1;connectable=0;" edge="1" parent="wKhzmLMpQ3T_GMPxd84L-45" source="wKhzmLMpQ3T_GMPxd84L-17" target="wKhzmLMpQ3T_GMPxd84L-19">
          <mxGeometry relative="1" as="geometry" />
        </mxCell>
        <mxCell id="wKhzmLMpQ3T_GMPxd84L-17" value="" style="rounded=0;whiteSpace=wrap;html=1;fillColor=#fff2cc;strokeColor=#d6b656;movable=0;resizable=0;rotatable=0;deletable=0;editable=0;locked=1;connectable=0;" vertex="1" parent="wKhzmLMpQ3T_GMPxd84L-45">
          <mxGeometry y="50" width="70" height="30" as="geometry" />
        </mxCell>
        <mxCell id="wKhzmLMpQ3T_GMPxd84L-19" value="" style="rounded=0;whiteSpace=wrap;html=1;fillColor=#fff2cc;strokeColor=#d6b656;movable=0;resizable=0;rotatable=0;deletable=0;editable=0;locked=1;connectable=0;" vertex="1" parent="wKhzmLMpQ3T_GMPxd84L-45">
          <mxGeometry y="100" width="70" height="30" as="geometry" />
        </mxCell>
        <mxCell id="wKhzmLMpQ3T_GMPxd84L-25" value="" style="edgeStyle=orthogonalEdgeStyle;rounded=0;orthogonalLoop=1;jettySize=auto;html=1;entryX=0.5;entryY=0;entryDx=0;entryDy=0;movable=0;resizable=0;rotatable=0;deletable=0;editable=0;locked=1;connectable=0;" edge="1" parent="wKhzmLMpQ3T_GMPxd84L-45" source="wKhzmLMpQ3T_GMPxd84L-26" target="wKhzmLMpQ3T_GMPxd84L-28">
          <mxGeometry relative="1" as="geometry">
            <Array as="points" />
          </mxGeometry>
        </mxCell>
        <mxCell id="wKhzmLMpQ3T_GMPxd84L-26" value="span class 1" style="rounded=0;whiteSpace=wrap;html=1;fillColor=#fff2cc;strokeColor=#d6b656;movable=0;resizable=0;rotatable=0;deletable=0;editable=0;locked=1;connectable=0;" vertex="1" parent="wKhzmLMpQ3T_GMPxd84L-45">
          <mxGeometry x="100" width="70" height="30" as="geometry" />
        </mxCell>
        <mxCell id="wKhzmLMpQ3T_GMPxd84L-27" value="" style="edgeStyle=orthogonalEdgeStyle;rounded=0;orthogonalLoop=1;jettySize=auto;html=1;movable=0;resizable=0;rotatable=0;deletable=0;editable=0;locked=1;connectable=0;" edge="1" parent="wKhzmLMpQ3T_GMPxd84L-45" source="wKhzmLMpQ3T_GMPxd84L-28" target="wKhzmLMpQ3T_GMPxd84L-29">
          <mxGeometry relative="1" as="geometry" />
        </mxCell>
        <mxCell id="wKhzmLMpQ3T_GMPxd84L-28" value="" style="rounded=0;whiteSpace=wrap;html=1;fillColor=#fff2cc;strokeColor=#d6b656;movable=0;resizable=0;rotatable=0;deletable=0;editable=0;locked=1;connectable=0;" vertex="1" parent="wKhzmLMpQ3T_GMPxd84L-45">
          <mxGeometry x="100" y="50" width="70" height="30" as="geometry" />
        </mxCell>
        <mxCell id="wKhzmLMpQ3T_GMPxd84L-29" value="" style="rounded=0;whiteSpace=wrap;html=1;fillColor=#fff2cc;strokeColor=#d6b656;movable=0;resizable=0;rotatable=0;deletable=0;editable=0;locked=1;connectable=0;" vertex="1" parent="wKhzmLMpQ3T_GMPxd84L-45">
          <mxGeometry x="100" y="100" width="70" height="30" as="geometry" />
        </mxCell>
        <mxCell id="wKhzmLMpQ3T_GMPxd84L-35" value="" style="edgeStyle=orthogonalEdgeStyle;rounded=0;orthogonalLoop=1;jettySize=auto;html=1;entryX=0.5;entryY=0;entryDx=0;entryDy=0;movable=0;resizable=0;rotatable=0;deletable=0;editable=0;locked=1;connectable=0;" edge="1" parent="wKhzmLMpQ3T_GMPxd84L-45" source="wKhzmLMpQ3T_GMPxd84L-36" target="wKhzmLMpQ3T_GMPxd84L-38">
          <mxGeometry relative="1" as="geometry">
            <Array as="points" />
          </mxGeometry>
        </mxCell>
        <mxCell id="wKhzmLMpQ3T_GMPxd84L-36" value="span class n" style="rounded=0;whiteSpace=wrap;html=1;fillColor=#fff2cc;strokeColor=#d6b656;movable=0;resizable=0;rotatable=0;deletable=0;editable=0;locked=1;connectable=0;" vertex="1" parent="wKhzmLMpQ3T_GMPxd84L-45">
          <mxGeometry x="190" width="70" height="30" as="geometry" />
        </mxCell>
        <mxCell id="wKhzmLMpQ3T_GMPxd84L-37" value="" style="edgeStyle=orthogonalEdgeStyle;rounded=0;orthogonalLoop=1;jettySize=auto;html=1;movable=0;resizable=0;rotatable=0;deletable=0;editable=0;locked=1;connectable=0;" edge="1" parent="wKhzmLMpQ3T_GMPxd84L-45" source="wKhzmLMpQ3T_GMPxd84L-38" target="wKhzmLMpQ3T_GMPxd84L-39">
          <mxGeometry relative="1" as="geometry" />
        </mxCell>
        <mxCell id="wKhzmLMpQ3T_GMPxd84L-38" value="" style="rounded=0;whiteSpace=wrap;html=1;fillColor=#fff2cc;strokeColor=#d6b656;movable=0;resizable=0;rotatable=0;deletable=0;editable=0;locked=1;connectable=0;" vertex="1" parent="wKhzmLMpQ3T_GMPxd84L-45">
          <mxGeometry x="190" y="50" width="70" height="30" as="geometry" />
        </mxCell>
        <mxCell id="wKhzmLMpQ3T_GMPxd84L-39" value="" style="rounded=0;whiteSpace=wrap;html=1;fillColor=#fff2cc;strokeColor=#d6b656;movable=0;resizable=0;rotatable=0;deletable=0;editable=0;locked=1;connectable=0;" vertex="1" parent="wKhzmLMpQ3T_GMPxd84L-45">
          <mxGeometry x="190" y="100" width="70" height="30" as="geometry" />
        </mxCell>
        <mxCell id="wKhzmLMpQ3T_GMPxd84L-50" value="" style="group;movable=0;resizable=0;rotatable=0;deletable=0;editable=0;locked=1;connectable=0;" vertex="1" connectable="0" parent="1">
          <mxGeometry x="200" y="-23.75" width="80" height="172.5" as="geometry" />
        </mxCell>
        <mxCell id="wKhzmLMpQ3T_GMPxd84L-43" value="&lt;div&gt;&lt;br&gt;&lt;/div&gt;" style="rounded=1;whiteSpace=wrap;html=1;fillColor=#f5f5f5;strokeColor=#666666;fontColor=#333333;movable=0;resizable=0;rotatable=0;deletable=0;editable=0;locked=1;connectable=0;" vertex="1" parent="wKhzmLMpQ3T_GMPxd84L-50">
          <mxGeometry width="80" height="172.5" as="geometry" />
        </mxCell>
        <mxCell id="wKhzmLMpQ3T_GMPxd84L-47" value="tiny alloc" style="rounded=1;whiteSpace=wrap;html=1;fillColor=#dae8fc;strokeColor=#6c8ebf;movable=0;resizable=0;rotatable=0;deletable=0;editable=0;locked=1;connectable=0;" vertex="1" parent="wKhzmLMpQ3T_GMPxd84L-50">
          <mxGeometry y="33.75" width="80" height="25" as="geometry" />
        </mxCell>
        <mxCell id="wKhzmLMpQ3T_GMPxd84L-48" value="span class 0" style="rounded=1;whiteSpace=wrap;html=1;fillColor=#dae8fc;strokeColor=#6c8ebf;movable=0;resizable=0;rotatable=0;deletable=0;editable=0;locked=1;connectable=0;" vertex="1" parent="wKhzmLMpQ3T_GMPxd84L-50">
          <mxGeometry y="73.75" width="80" height="25" as="geometry" />
        </mxCell>
        <mxCell id="wKhzmLMpQ3T_GMPxd84L-49" value="span class n" style="rounded=1;whiteSpace=wrap;html=1;fillColor=#dae8fc;strokeColor=#6c8ebf;movable=0;resizable=0;rotatable=0;deletable=0;editable=0;locked=1;connectable=0;" vertex="1" parent="wKhzmLMpQ3T_GMPxd84L-50">
          <mxGeometry y="113.75" width="80" height="25" as="geometry" />
        </mxCell>
        <mxCell id="wKhzmLMpQ3T_GMPxd84L-52" value="" style="group;movable=0;resizable=0;rotatable=0;deletable=0;editable=0;locked=1;connectable=0;" vertex="1" connectable="0" parent="1">
          <mxGeometry x="310" y="-23.75" width="80" height="172.5" as="geometry" />
        </mxCell>
        <mxCell id="wKhzmLMpQ3T_GMPxd84L-53" value="&lt;div&gt;&lt;br&gt;&lt;/div&gt;" style="rounded=1;whiteSpace=wrap;html=1;fillColor=#f5f5f5;strokeColor=#666666;fontColor=#333333;movable=0;resizable=0;rotatable=0;deletable=0;editable=0;locked=1;connectable=0;" vertex="1" parent="wKhzmLMpQ3T_GMPxd84L-52">
          <mxGeometry width="80" height="172.5" as="geometry" />
        </mxCell>
        <mxCell id="wKhzmLMpQ3T_GMPxd84L-54" value="tiny alloc" style="rounded=1;whiteSpace=wrap;html=1;fillColor=#dae8fc;strokeColor=#6c8ebf;movable=0;resizable=0;rotatable=0;deletable=0;editable=0;locked=1;connectable=0;" vertex="1" parent="wKhzmLMpQ3T_GMPxd84L-52">
          <mxGeometry y="33.75" width="80" height="25" as="geometry" />
        </mxCell>
        <mxCell id="wKhzmLMpQ3T_GMPxd84L-55" value="span class 0" style="rounded=1;whiteSpace=wrap;html=1;fillColor=#dae8fc;strokeColor=#6c8ebf;movable=0;resizable=0;rotatable=0;deletable=0;editable=0;locked=1;connectable=0;" vertex="1" parent="wKhzmLMpQ3T_GMPxd84L-52">
          <mxGeometry y="73.75" width="80" height="25" as="geometry" />
        </mxCell>
        <mxCell id="wKhzmLMpQ3T_GMPxd84L-56" value="span class n" style="rounded=1;whiteSpace=wrap;html=1;fillColor=#dae8fc;strokeColor=#6c8ebf;movable=0;resizable=0;rotatable=0;deletable=0;editable=0;locked=1;connectable=0;" vertex="1" parent="wKhzmLMpQ3T_GMPxd84L-52">
          <mxGeometry y="113.75" width="80" height="25" as="geometry" />
        </mxCell>
        <mxCell id="wKhzmLMpQ3T_GMPxd84L-57" value="" style="group;movable=0;resizable=0;rotatable=0;deletable=0;editable=0;locked=1;connectable=0;" vertex="1" connectable="0" parent="1">
          <mxGeometry x="420" y="-23.75" width="80" height="172.5" as="geometry" />
        </mxCell>
        <mxCell id="wKhzmLMpQ3T_GMPxd84L-78" style="edgeStyle=orthogonalEdgeStyle;rounded=0;orthogonalLoop=1;jettySize=auto;html=1;curved=1;movable=0;resizable=0;rotatable=0;deletable=0;editable=0;locked=1;connectable=0;" edge="1" parent="wKhzmLMpQ3T_GMPxd84L-57" source="wKhzmLMpQ3T_GMPxd84L-58">
          <mxGeometry relative="1" as="geometry">
            <mxPoint x="100" y="443.75" as="targetPoint" />
          </mxGeometry>
        </mxCell>
        <mxCell id="wKhzmLMpQ3T_GMPxd84L-58" value="&lt;div&gt;&lt;br&gt;&lt;/div&gt;" style="rounded=1;whiteSpace=wrap;html=1;fillColor=#f5f5f5;strokeColor=#666666;fontColor=#333333;movable=0;resizable=0;rotatable=0;deletable=0;editable=0;locked=1;connectable=0;" vertex="1" parent="wKhzmLMpQ3T_GMPxd84L-57">
          <mxGeometry width="80" height="172.5" as="geometry" />
        </mxCell>
        <mxCell id="wKhzmLMpQ3T_GMPxd84L-59" value="tiny alloc" style="rounded=1;whiteSpace=wrap;html=1;fillColor=#dae8fc;strokeColor=#6c8ebf;movable=0;resizable=0;rotatable=0;deletable=0;editable=0;locked=1;connectable=0;" vertex="1" parent="wKhzmLMpQ3T_GMPxd84L-57">
          <mxGeometry y="33.75" width="80" height="25" as="geometry" />
        </mxCell>
        <mxCell id="wKhzmLMpQ3T_GMPxd84L-60" value="span class 0" style="rounded=1;whiteSpace=wrap;html=1;fillColor=#dae8fc;strokeColor=#6c8ebf;movable=0;resizable=0;rotatable=0;deletable=0;editable=0;locked=1;connectable=0;" vertex="1" parent="wKhzmLMpQ3T_GMPxd84L-57">
          <mxGeometry y="73.75" width="80" height="25" as="geometry" />
        </mxCell>
        <mxCell id="wKhzmLMpQ3T_GMPxd84L-61" value="span class n" style="rounded=1;whiteSpace=wrap;html=1;fillColor=#dae8fc;strokeColor=#6c8ebf;movable=0;resizable=0;rotatable=0;deletable=0;editable=0;locked=1;connectable=0;" vertex="1" parent="wKhzmLMpQ3T_GMPxd84L-57">
          <mxGeometry y="113.75" width="80" height="25" as="geometry" />
        </mxCell>
        <mxCell id="wKhzmLMpQ3T_GMPxd84L-62" value="P" style="text;html=1;align=center;verticalAlign=middle;whiteSpace=wrap;rounded=0;fillColor=#f5f5f5;fontColor=#333333;strokeColor=#666666;movable=0;resizable=0;rotatable=0;deletable=0;editable=0;locked=1;connectable=0;" vertex="1" parent="1">
          <mxGeometry x="210" y="-60" width="60" height="30" as="geometry" />
        </mxCell>
        <mxCell id="wKhzmLMpQ3T_GMPxd84L-63" value="P" style="text;html=1;align=center;verticalAlign=middle;whiteSpace=wrap;rounded=0;fillColor=#f5f5f5;fontColor=#333333;strokeColor=#666666;movable=0;resizable=0;rotatable=0;deletable=0;editable=0;locked=1;connectable=0;" vertex="1" parent="1">
          <mxGeometry x="320" y="-60" width="60" height="30" as="geometry" />
        </mxCell>
        <mxCell id="wKhzmLMpQ3T_GMPxd84L-64" value="P" style="text;html=1;align=center;verticalAlign=middle;whiteSpace=wrap;rounded=0;fillColor=#f5f5f5;fontColor=#333333;strokeColor=#666666;movable=0;resizable=0;rotatable=0;deletable=0;editable=0;locked=1;connectable=0;" vertex="1" parent="1">
          <mxGeometry x="430" y="-60" width="60" height="30" as="geometry" />
        </mxCell>
        <mxCell id="wKhzmLMpQ3T_GMPxd84L-65" value="" style="shape=link;html=1;rounded=0;movable=0;resizable=0;rotatable=0;deletable=0;editable=0;locked=1;connectable=0;" edge="1" parent="1">
          <mxGeometry width="100" relative="1" as="geometry">
            <mxPoint x="5" y="-80" as="sourcePoint" />
            <mxPoint x="655" y="-80" as="targetPoint" />
          </mxGeometry>
        </mxCell>
        <mxCell id="wKhzmLMpQ3T_GMPxd84L-72" style="edgeStyle=orthogonalEdgeStyle;rounded=0;orthogonalLoop=1;jettySize=auto;html=1;entryX=0;entryY=0.75;entryDx=0;entryDy=0;elbow=vertical;curved=1;movable=0;resizable=0;rotatable=0;deletable=0;editable=0;locked=1;connectable=0;" edge="1" parent="1" source="wKhzmLMpQ3T_GMPxd84L-68" target="wKhzmLMpQ3T_GMPxd84L-47">
          <mxGeometry relative="1" as="geometry" />
        </mxCell>
        <mxCell id="wKhzmLMpQ3T_GMPxd84L-68" value="微对象" style="rounded=1;whiteSpace=wrap;html=1;movable=0;resizable=0;rotatable=0;deletable=0;editable=0;locked=1;connectable=0;" vertex="1" parent="1">
          <mxGeometry x="185" y="-190" width="120" height="60" as="geometry" />
        </mxCell>
        <mxCell id="wKhzmLMpQ3T_GMPxd84L-73" style="edgeStyle=orthogonalEdgeStyle;rounded=0;orthogonalLoop=1;jettySize=auto;html=1;entryX=0;entryY=0.5;entryDx=0;entryDy=0;curved=1;movable=0;resizable=0;rotatable=0;deletable=0;editable=0;locked=1;connectable=0;" edge="1" parent="1" source="wKhzmLMpQ3T_GMPxd84L-69" target="wKhzmLMpQ3T_GMPxd84L-60">
          <mxGeometry relative="1" as="geometry" />
        </mxCell>
        <mxCell id="wKhzmLMpQ3T_GMPxd84L-69" value="小对象" style="rounded=1;whiteSpace=wrap;html=1;movable=0;resizable=0;rotatable=0;deletable=0;editable=0;locked=1;connectable=0;" vertex="1" parent="1">
          <mxGeometry x="340" y="-190" width="120" height="60" as="geometry" />
        </mxCell>
        <mxCell id="wKhzmLMpQ3T_GMPxd84L-79" style="edgeStyle=orthogonalEdgeStyle;rounded=0;orthogonalLoop=1;jettySize=auto;html=1;curved=1;movable=0;resizable=0;rotatable=0;deletable=0;editable=0;locked=1;connectable=0;" edge="1" parent="1" source="wKhzmLMpQ3T_GMPxd84L-70">
          <mxGeometry relative="1" as="geometry">
            <mxPoint x="530" y="420" as="targetPoint" />
          </mxGeometry>
        </mxCell>
        <mxCell id="wKhzmLMpQ3T_GMPxd84L-70" value="大对象" style="rounded=1;whiteSpace=wrap;html=1;movable=0;resizable=0;rotatable=0;deletable=0;editable=0;locked=1;connectable=0;" vertex="1" parent="1">
          <mxGeometry x="510" y="-190" width="120" height="60" as="geometry" />
        </mxCell>
        <mxCell id="wKhzmLMpQ3T_GMPxd84L-76" style="edgeStyle=orthogonalEdgeStyle;rounded=0;orthogonalLoop=1;jettySize=auto;html=1;curved=1;movable=0;resizable=0;rotatable=0;deletable=0;editable=0;locked=1;connectable=0;" edge="1" parent="1" source="wKhzmLMpQ3T_GMPxd84L-60" target="wKhzmLMpQ3T_GMPxd84L-42">
          <mxGeometry relative="1" as="geometry" />
        </mxCell>
      </root>
    </mxGraphModel>
  </diagram>
</mxfile>
